<svg xmlns="http://www.w3.org/2000/svg" viewBox="0 0 400 500" font-family="SimSun, serif">
  <rect width="400" height="500" fill="#fff" stroke="#333" stroke-width="1"/>
  <rect x="10" y="10" width="380" height="30" fill="#00695c" rx="3"/>
  <text x="200" y="30" text-anchor="middle" fill="#fff" font-size="14" font-weight="bold">海运提单 BILL OF LADING</text>
  <line x1="10" y1="62" x2="390" y2="62" stroke="#ccc" stroke-width="1"/>
  <text x="20" y="82" font-size="11" fill="#333">提单号：MSCU4820347</text>
  <text x="20" y="102" font-size="11" fill="#333">船名：CMA CGM COLUMBIA</text>
  <text x="20" y="122" font-size="11" fill="#333">航次：V.244E</text>
  <text x="220" y="122" font-size="11" fill="#333">装箱单号：PL-2024-1128</text>
  <text x="20" y="142" font-size="11" fill="#333">发货人(Shipper)：浙江宏大进出口有限公司</text>
  <text x="20" y="162" font-size="11" fill="#333">收货人(Consignee)：Global Trade Solutions GmbH</text>
  <text x="20" y="182" font-size="11" fill="#333">通知方：DB Schenker Hamburg</text>
  <line x1="10" y1="195" x2="390" y2="195" stroke="#ccc" stroke-width="1"/>
  <text x="20" y="215" font-size="11" fill="#333">装货港(POL)：NINGBO, CHINA</text>
  <text x="20" y="235" font-size="11" fill="#333">卸货港(POD)：HAMBURG, GERMANY</text>
  <text x="20" y="255" font-size="11" fill="#333">交货地：HAMBURG CFS</text>
  <line x1="10" y1="268" x2="390" y2="268" stroke="#ccc" stroke-width="1"/>
  <text x="20" y="288" font-size="11" fill="#333">集装箱号：MSCU4820347</text>
  <text x="220" y="288" font-size="11" fill="#333">封号：MSC123456</text>
  <text x="20" y="308" font-size="11" fill="#333">件数：200 CTNS</text>
  <text x="220" y="308" font-size="11" fill="#333">毛重：5200.00 KGS</text>
  <text x="20" y="328" font-size="11" fill="#333">体积：52.000 CBM</text>
  <text x="20" y="348" font-size="11" fill="#333">运费支付：FREIGHT PREPAID</text>
  <line x1="10" y1="361" x2="390" y2="361" stroke="#ccc" stroke-width="1"/>
  <text x="20" y="381" font-size="10" fill="#666">承运人：CMA CGM (China) Shipping Co., Ltd.</text>
  <text x="20" y="401" font-size="10" fill="#666">签发日期：2024-11-18</text>
  <text x="20" y="421" font-size="10" fill="#666">提单类型：MASTER B/L</text>
  <rect x="10" y="435" width="380" height="40" fill="#f5f5f5" rx="2"/>
  <text x="200" y="460" text-anchor="middle" font-size="11" fill="#999">模拟样例 · 仅用于演示</text>
</svg>